<svg width="289" height="68" viewBox="0 0 289 68" fill="none" xmlns="http://www.w3.org/2000/svg">
<path d="M85.8185 29.7022C82.5742 29.9824 79.4626 29.5138 78.6233 29.3788C75.7572 28.9126 73.4098 28.1204 71.6962 27.4148C71.5609 24.646 70.8243 17.1394 65.2851 10.4275C64.7615 9.7932 55.4017 -1.17767 41.7303 0.595197C39.8739 0.834636 30.9776 1.99107 25.7115 9.76009C23.3089 13.3033 22.5648 16.8897 22.3018 19.0676C23.6571 17.063 26.1524 13.9554 30.1934 11.7062C38.9996 6.80786 52.0546 7.70193 58.4482 15.5041C60.8157 18.3951 61.7251 21.5664 62.1184 23.6424C61.2591 23.1865 60.3948 22.7127 59.5254 22.2364C52.8112 18.5531 45.2002 14.3807 36.0959 16.8923C32.333 17.929 28.6752 20.0228 25.7992 22.784C24.8597 23.6857 24.0204 24.6384 23.2889 25.6318C22.645 25.0994 21.708 24.4168 20.4804 23.8156C19.5735 23.3699 14.3976 20.8328 8.61033 23.2934C7.95895 23.5711 2.62017 25.9476 0.728674 32.0177C0.450586 32.9066 -1.85679 40.7572 3.52208 45.5103C7.11216 48.6815 12.5912 49.1222 17.0908 46.5241C10.2789 45.9713 5.93718 41.2386 6.21527 37.1911C6.39565 34.5776 8.5502 31.5311 11.7019 30.8001C14.137 30.2346 16.8452 31.1236 18.2983 32.9041C19.3104 34.1446 19.5961 35.4666 19.6311 36.702C19.7313 40.2961 20.999 43.9412 23.369 47.4003C25.7516 50.8773 29.2239 54.0434 32.8967 56.0812C35.5448 57.551 38.4434 58.5367 41.4598 59.0054C45.0774 59.5556 49.5043 59.0615 50.584 58.8475C53.7633 58.2413 56.7521 57.0619 59.3902 55.3604C65.4279 51.4606 69.7019 44.6162 71.2076 36.4829C72.568 36.8828 74.5171 37.3388 76.8846 37.4993C79.3473 37.6648 86.3196 38.1361 92.6479 33.546C97.2251 30.227 99.322 25.8101 100.214 23.5023C97.8489 25.4076 92.6104 29.1087 85.8185 29.6997V29.7022ZM62.6069 34.1344C61.6624 40.1229 58.7588 45.0849 54.6351 47.7467C49.5919 51.0021 42.5646 51.1727 37.1532 48.1645C31.0052 44.7512 27.9738 38.8213 28.5926 35.0616C29.259 31.0268 33.4854 26.9589 38.4233 25.5961C39.5282 25.2905 40.6155 25.1555 41.6953 25.1555C46.1597 25.1555 50.4738 27.5193 55.3191 30.176C57.6415 31.4496 60.0666 32.7793 62.6445 33.9102C62.632 33.9867 62.622 34.0631 62.6095 34.137L62.6069 34.1344Z" fill="url(#paint0_linear_269_8452)"/>
<path d="M59.0067 62.7192H31.0526C29.6801 62.7192 28.5674 63.8507 28.5674 65.2464C28.5674 66.6421 29.6801 67.7735 31.0526 67.7735H59.0067C60.3793 67.7735 61.492 66.6421 61.492 65.2464C61.492 63.8507 60.3793 62.7192 59.0067 62.7192Z" fill="url(#paint1_linear_269_8452)"/>
<path d="M52.6986 57.6963H37.3612C35.9887 57.6963 34.876 58.8277 34.876 60.2234C34.876 61.6191 35.9887 62.7506 37.3612 62.7506H52.6986C54.0712 62.7506 55.1839 61.6191 55.1839 60.2234C55.1839 58.8277 54.0712 57.6963 52.6986 57.6963Z" fill="url(#paint2_linear_269_8452)"/>
<path d="M128.782 37.629C129.371 35.2856 130.035 32.6263 130.175 31.7679C130.536 29.6053 130.648 27.109 128.739 25.0025C126.76 22.8195 123.523 22.119 120.084 23.1328C118.621 23.5633 117.225 24.2001 115.877 24.814C114.579 25.405 113.237 26.0163 111.874 26.4213C109.449 27.1396 106.194 27.1804 104.325 25.1375L103.085 23.7824L103.123 25.6342C103.16 27.5064 103.215 30.3338 104.907 32.1984C106.092 33.5077 108.023 34.2209 110.213 34.147C113.339 34.0502 115.737 32.6543 118.275 31.1769C118.833 30.8509 119.402 30.5198 119.991 30.1988C120.625 29.8524 122.754 28.8029 123.626 29.883C123.982 30.3644 123.536 33.1561 122.907 35.2754C121.371 35.0869 118.851 34.8602 118.114 34.8526C112.503 34.8016 106.798 37.1527 102.842 41.1391C98.9114 45.1 96.8345 50.4161 96.8345 56.509C96.8345 62.118 100.059 67.7754 107.259 67.7754C110.518 67.7754 115.436 65.3326 119.415 58.6665C119.603 63.3534 120.773 67.7754 126.981 67.7754C129.373 67.7754 130.305 67.0901 130.305 65.33C130.305 64.3977 130.305 63.119 129.04 62.7701C126.547 62.1995 125.508 61.4914 125.508 58.5799C125.508 51.9113 126.953 45.1128 128.211 39.9317C128.356 39.3357 128.559 38.5206 128.782 37.6316V37.629ZM122.173 41.1697C121.84 42.7515 121.416 44.7256 121.058 46.2616C117.04 56.183 112.618 61.2137 107.915 61.2137C105.135 61.2137 103.474 59.3746 103.474 56.2976C103.474 51.1802 104.729 47.4919 107.307 45.0185C110.03 42.4076 114.259 41.1264 120.186 41.1264C120.828 41.1264 121.492 41.1417 122.173 41.1722V41.1697Z" fill="white"/>
<path d="M174.022 62.7675C171.53 62.1969 170.488 61.4888 170.488 58.5774C170.488 51.9087 171.933 45.1077 173.191 39.9292C173.333 39.3382 173.536 38.5282 173.759 37.6443C174.348 35.2932 175.017 32.6289 175.157 31.7679C175.518 29.6053 175.631 27.109 173.722 25.0025C171.743 22.8195 168.508 22.119 165.066 23.1328C163.603 23.5633 162.21 24.2001 160.86 24.814C159.562 25.405 158.219 26.0163 156.856 26.4213C154.431 27.1396 151.177 27.1804 149.308 25.1375L148.068 23.7824L148.105 25.6342C148.143 27.5064 148.198 30.3338 149.889 32.1984C151.076 33.5077 153.006 34.2209 155.195 34.147C158.322 34.0502 160.719 32.6543 163.257 31.1769C163.818 30.8509 164.387 30.5198 164.973 30.1963C165.605 29.8498 167.737 28.7978 168.609 29.8804C168.964 30.3618 168.518 33.1536 167.89 35.2729C166.354 35.0844 163.833 34.8577 163.097 34.85C157.485 34.7991 151.78 37.1502 147.825 41.1366C143.894 45.0975 141.817 50.4135 141.817 56.5065C141.817 62.1154 145.041 67.7728 152.241 67.7728C155.501 67.7728 160.419 65.33 164.397 58.664C164.585 63.3508 165.755 67.7728 171.963 67.7728C174.356 67.7728 175.288 67.0876 175.288 65.3275C175.288 64.3952 175.288 63.1165 174.022 62.7675ZM167.155 41.1697C166.822 42.7515 166.401 44.7256 166.041 46.2616C162.022 56.183 157.6 61.2137 152.898 61.2137C150.117 61.2137 148.456 59.3746 148.456 56.2976C148.456 51.1802 149.711 47.4919 152.289 45.0185C155.012 42.4076 159.239 41.1264 165.166 41.1264C165.808 41.1264 166.472 41.1417 167.153 41.1722L167.155 41.1697Z" fill="white"/>
<path d="M141.303 62.7752L141.256 62.765C138.986 62.3039 137.608 61.7588 137.608 58.1112C137.608 48.8317 139.169 38.3754 142.383 26.1411C143.458 22.0222 145.051 17.9289 146.439 15.7102L146.547 15.537V15.3307C146.547 14.536 146.054 13.6877 144.668 13.6877H142.433C140.096 13.6877 137.899 17.5289 135.714 25.438C133.394 34.0884 130.628 46.7786 130.628 58.1086C130.628 64.7008 133.357 67.7728 139.212 67.7728C141.604 67.7728 142.536 67.0876 142.536 65.3275C142.536 64.3952 142.536 63.1165 141.301 62.7752H141.303Z" fill="white"/>
<path d="M208.771 62.775L208.628 62.7521C203.873 62.4719 203.036 61.183 203.036 58.5772C203.036 51.4781 205.008 42.9781 206.594 36.1465C206.942 34.6461 207.27 33.2273 207.556 31.9283V31.9232C208.495 27.5037 210.036 22.152 212.268 15.5624L212.306 15.4503V15.3331C212.306 14.3194 211.637 13.6902 210.56 13.6902H207.799C204.993 13.6902 203.63 19.1565 201.41 29.6485C199.925 28.8461 198.046 28.3953 196.099 28.3953C189.731 28.3953 184.259 31.5666 180.281 37.5627C176.816 42.7845 174.829 49.8123 174.829 56.84C174.829 63.8678 178.126 67.7727 183.873 67.7727C188.526 67.7727 193.15 64.4027 196.863 58.4142C196.856 58.6078 196.853 58.7963 196.853 58.9797C196.853 64.9784 199.809 67.7752 206.16 67.7752C209.415 67.7752 210.011 66.9525 210.011 65.3299C210.011 64.3976 210.011 63.1189 208.776 62.7776L208.771 62.775ZM200.243 35.6752C199.511 38.7421 198.822 42.0254 198.153 45.2069L197.928 46.2716C193.669 56.8833 189.878 61.2136 184.855 61.2136C184.019 61.2136 181.473 61.2136 181.473 55.9714C181.473 46.3837 184.169 34.9543 197.016 34.9543C198.409 34.9543 199.489 35.1963 200.24 35.6752H200.243Z" fill="white"/>
<path d="M243.434 62.775L243.292 62.7521C238.537 62.4719 237.7 61.183 237.7 58.5772C237.7 51.4781 239.672 42.9781 241.257 36.1465C241.606 34.6461 241.934 33.2273 242.219 31.9283V31.9232C243.159 27.5063 244.7 22.1546 246.932 15.5624L246.969 15.4503V15.3331C246.969 14.3194 246.301 13.6902 245.223 13.6902H242.462C239.656 13.6902 238.294 19.1565 236.071 29.6485C234.586 28.8461 232.707 28.3953 230.76 28.3953C224.392 28.3953 218.92 31.5666 214.942 37.5627C211.477 42.7845 209.49 49.8123 209.49 56.84C209.49 63.8678 212.787 67.7727 218.534 67.7727C223.187 67.7727 227.811 64.4027 231.524 58.4142C231.517 58.6078 231.514 58.7963 231.514 58.9797C231.514 64.9784 234.471 67.7752 240.821 67.7752C244.076 67.7752 244.672 66.9525 244.672 65.3299C244.672 64.3976 244.672 63.1189 243.437 62.7776L243.434 62.775ZM234.906 35.6752C234.177 38.7319 233.491 42.0025 232.825 45.1712L232.594 46.2716C228.335 56.8833 224.545 61.2136 219.521 61.2136C218.685 61.2136 216.139 61.2136 216.139 55.9714C216.139 46.3837 218.835 34.9543 231.682 34.9543C233.075 34.9543 234.157 35.1963 234.906 35.6752Z" fill="white"/>
<path d="M254.502 26.5512C257.569 26.5512 260.062 23.9556 260.062 20.764C260.062 18.2218 258.398 16.449 256.013 16.449C253.087 16.449 250.519 19.121 250.519 22.1675C250.519 24.6663 252.23 26.5512 254.5 26.5512H254.502Z" fill="white"/>
<path d="M252.671 56.4478C252.784 54.0764 252.992 51.6463 253.29 49.2239C253.894 44.3282 254.876 39.2771 256.289 33.7776L256.312 33.5993C256.312 32.5448 255.618 31.8901 254.5 31.8901H251.476C250.943 31.8901 249.991 32.1168 249.62 33.6299C249.585 33.7674 249.547 33.905 249.51 34.04L249.442 34.2871C247.886 40.1176 246.827 45.4948 246.208 50.7268C245.89 53.4192 245.692 56.0836 245.619 58.641L245.612 58.9186C245.551 61.0354 245.474 63.6718 246.406 65.6968C246.889 66.7488 247.706 67.4773 248.648 67.6989C248.853 67.7473 249.066 67.7702 249.287 67.7702C249.886 67.7702 250.529 67.5919 251.181 67.2404C251.857 66.8762 252.326 66.4457 252.611 65.9235C253.15 64.9403 252.95 63.8144 252.752 63.0528C252.331 61.4353 252.451 59.7287 252.579 57.9227C252.614 57.4285 252.649 56.9369 252.671 56.4453V56.4478Z" fill="white"/>
<path d="M286.951 62.7675C284.459 62.1969 283.419 61.4888 283.419 58.5773C283.419 55.35 284.323 51.5266 285.283 47.4791C286.272 43.2991 287.297 38.979 287.297 35.1811C287.297 31.0572 284.652 28.3928 280.555 28.3928C273.936 28.3928 269.895 32.6772 266.791 38.0136C267.137 35.3773 267.312 33.1994 267.312 31.5055C267.312 29.3608 265.907 29.129 265.303 29.129H262.936C261.635 29.129 260.861 29.9186 260.861 31.2381V31.5616C260.866 32.9141 260.874 34.9621 260.21 40.2399C259.496 46.096 258.363 51.8119 257.269 57.3394C256.755 59.9273 256.226 62.6019 255.745 65.2638L255.733 65.3911C255.733 66.1859 256.226 67.0341 257.612 67.0341H260.242C261.297 67.0341 262.106 66.4508 262.362 65.5007C262.725 64.0615 263.149 61.5143 263.685 58.292C264.123 55.6531 264.619 52.6652 265.185 49.6926C267.069 45.2044 272.075 34.9519 278.453 34.9519C279.734 34.9519 280.257 35.5225 280.257 36.9183C280.257 40.3061 279.338 43.9436 278.366 47.7975C277.389 51.6718 276.377 55.6786 276.377 59.4434C276.377 65.0473 279.162 67.7702 284.895 67.7702C287.287 67.7702 288.219 67.085 288.219 65.3249C288.219 64.3926 288.219 63.1139 286.954 62.765L286.951 62.7675Z" fill="white"/>
<defs>
<linearGradient id="paint0_linear_269_8452" x1="63.8546" y1="-12.388" x2="41.4862" y2="52.5186" gradientUnits="userSpaceOnUse">
<stop offset="0.07" stop-color="#FFC700"/>
<stop offset="0.34" stop-color="#FF4900"/>
<stop offset="0.37" stop-color="#F5470A"/>
<stop offset="0.52" stop-color="#C6403F"/>
<stop offset="0.67" stop-color="#A13B69"/>
<stop offset="0.8" stop-color="#863788"/>
<stop offset="0.91" stop-color="#76349A"/>
<stop offset="0.99" stop-color="#7134A1"/>
</linearGradient>
<linearGradient id="paint1_linear_269_8452" x1="57.1528" y1="-1.96262" x2="45.2006" y2="62.121" gradientUnits="userSpaceOnUse">
<stop offset="0.07" stop-color="#FFC700"/>
<stop offset="0.34" stop-color="#FF4900"/>
<stop offset="0.37" stop-color="#F5470A"/>
<stop offset="0.52" stop-color="#C6403F"/>
<stop offset="0.67" stop-color="#A13B69"/>
<stop offset="0.8" stop-color="#863788"/>
<stop offset="0.91" stop-color="#76349A"/>
<stop offset="0.99" stop-color="#7134A1"/>
</linearGradient>
<linearGradient id="paint2_linear_269_8452" x1="54.3972" y1="8.29198" x2="45.162" y2="57.8071" gradientUnits="userSpaceOnUse">
<stop offset="0.07" stop-color="#FFC700"/>
<stop offset="0.34" stop-color="#FF4900"/>
<stop offset="0.37" stop-color="#F5470A"/>
<stop offset="0.52" stop-color="#C6403F"/>
<stop offset="0.67" stop-color="#A13B69"/>
<stop offset="0.8" stop-color="#863788"/>
<stop offset="0.91" stop-color="#76349A"/>
<stop offset="0.99" stop-color="#7134A1"/>
</linearGradient>
</defs>
</svg>
